<svg width="132" height="53" viewBox="0 0 132 53" fill="none" xmlns="http://www.w3.org/2000/svg">
<path d="M12.8643 2.0556C14.6415 2.0556 16.2459 2.35009 17.6729 2.94427H17.6719C19.1173 3.53817 20.3352 4.402 21.3213 5.53607L21.4814 5.71967L21.3018 5.88373L18.3672 8.57709L18.1865 8.7431L18.0176 8.56537C17.3234 7.839 16.5699 7.30913 15.7588 6.96869L15.7549 6.96674C14.9425 6.60782 14.0549 6.4267 13.0898 6.4267C12.1569 6.42674 11.3128 6.57227 10.5547 6.85931C9.79472 7.14712 9.13689 7.56001 8.5791 8.09662C8.0406 8.63275 7.61768 9.26761 7.31055 10.0038C7.02358 10.7367 6.87793 11.5547 6.87793 12.4609C6.87795 13.3476 7.02336 14.1562 7.31055 14.8896L7.43164 15.162C7.72552 15.7855 8.10771 16.3396 8.5791 16.8251L8.79297 17.0204C9.30122 17.4631 9.87852 17.8099 10.5264 18.0615L10.8145 18.163C11.4951 18.3833 12.2346 18.4941 13.0342 18.4941C13.9094 18.494 14.7565 18.359 15.5762 18.0878L15.8877 17.9706C16.0396 17.909 16.1894 17.8382 16.3398 17.7636V11.9023H21.0156V20.2441L20.916 20.3193C19.8178 21.1429 18.5395 21.7713 17.085 22.2089C15.6517 22.6458 14.2168 22.8661 12.7803 22.8661C11.1927 22.8661 9.72347 22.6185 8.37598 22.121L8.37207 22.1191C7.04542 21.603 5.87943 20.8755 4.87695 19.9365L4.875 19.9355C3.8915 18.9961 3.12011 17.8935 2.56152 16.6298L2.56055 16.6269C2.01928 15.3586 1.75002 13.9686 1.75 12.4609C1.75 10.9531 2.01926 9.5632 2.56055 8.29486L2.56152 8.29193C3.12059 7.02711 3.90232 5.92382 4.90527 4.98431C5.90892 4.04422 7.08516 3.32527 8.43164 2.82806V2.82904C9.77966 2.31252 11.2581 2.05563 12.8643 2.0556Z" fill="#15719A" stroke="#15719A" stroke-width="0.5"/>
<path d="M27.4893 2.34998V22.6302H22.4111V2.34998H27.4893Z" fill="#15719A" stroke="#15719A" stroke-width="0.5"/>
<path fill-rule="evenodd" clip-rule="evenodd" d="M46.3796 8.26736C46.4649 8.74723 46.5084 9.25061 46.5084 9.77735C46.5083 11.295 46.1475 12.6243 45.4152 13.7525C44.6846 14.8779 43.65 15.742 42.3233 16.3468L42.3202 16.3482C40.9932 16.9336 39.4247 17.2209 37.6235 17.2209H33.9335V22.6748H28.7671V17.0344L35.5467 10.1666L39.8173 14.3792L46.3796 8.26736Z" fill="#15719A"/>
<path fill-rule="evenodd" clip-rule="evenodd" d="M37.6235 2.3056C39.4245 2.3056 40.993 2.60239 42.3202 3.20677L42.5657 3.31973C43.6916 3.85989 44.5943 4.60485 45.2666 5.55554L39.8173 10.9637L35.5467 6.75105L28.7671 13.6189V2.3056H37.6235Z" fill="#15719A"/>
<path d="M65.1271 11.9124C65.736 11.3927 66.0404 10.652 66.0404 9.69023C66.0404 8.72846 65.736 7.98193 65.1271 7.45257C64.5183 6.92321 63.6147 6.65756 62.4183 6.65756H59.1801V12.6938H62.4183C63.6166 12.6938 64.5183 12.434 65.1271 11.9124ZM67.6305 2.99082C69.0033 3.60937 70.064 4.49164 70.8105 5.6415C71.557 6.78942 71.9293 8.14093 71.9293 9.69023C71.9293 11.2395 71.5551 12.5852 70.8105 13.7235C70.064 14.8617 69.0033 15.7401 67.6305 16.3586C66.2557 16.9772 64.6366 17.2855 62.7712 17.2855H59.1781V22.6741H53.3474V2.06201H62.7693C64.6346 2.06201 66.2537 2.37226 67.6285 2.98888" fill="#011B39"/>
<path d="M78.8185 2.06393H72.9878V22.676H78.8185V2.06393Z" fill="#011B39"/>
<path d="M94.484 14.3711L91.8334 7.77445L89.1827 14.3711H94.4821H94.484ZM96.1923 18.67H87.4763L85.8572 22.6741H79.9082L89.0082 2.06201H94.7497L103.879 22.6741H97.8134L96.1943 18.67H96.1923Z" fill="#011B39"/>
<path d="M105.098 20.5857C103.4 18.9182 102.55 16.5525 102.55 13.4888V2.06393H108.381V13.3124C108.381 16.6107 109.686 18.2589 112.298 18.2589C114.91 18.2589 116.186 16.6107 116.186 13.3124V2.06393H121.927V13.4888C121.927 16.5506 121.078 18.9162 119.379 20.5857C117.681 22.2553 115.301 23.0891 112.238 23.0891C109.174 23.0891 106.795 22.2553 105.096 20.5857" fill="#011B39"/>
<path d="M129.348 2H123.517V5.74624L129.348 2Z" fill="#011B39"/>
<path d="M123.517 7.44087V22.612H129.348V3.69269L123.517 7.44087Z" fill="#011B39"/>
<path d="M6.1174 39.0801C5.58274 39.0801 5.09045 38.9953 4.64055 38.8258C4.19717 38.6497 3.80922 38.4052 3.47668 38.0923C3.14415 37.7728 2.8866 37.3978 2.70403 36.9675C2.52146 36.5372 2.43018 36.0677 2.43018 35.5591C2.43018 35.0505 2.52146 34.5811 2.70403 34.1507C2.8866 33.7204 3.14415 33.3487 3.47668 33.0358C3.81574 32.7163 4.21022 32.4718 4.66012 32.3022C5.11002 32.1262 5.6023 32.0382 6.13696 32.0382C6.71727 32.0382 7.23889 32.1327 7.70183 32.3218C8.17129 32.5109 8.56577 32.788 8.88526 33.1531L8.08327 33.9356C7.81594 33.6682 7.52578 33.4726 7.21281 33.3487C6.90636 33.2183 6.5673 33.1531 6.19564 33.1531C5.83703 33.1531 5.50449 33.2118 5.19804 33.3292C4.89159 33.4466 4.62751 33.6128 4.40582 33.828C4.18413 34.0432 4.01135 34.2975 3.88746 34.5909C3.7701 34.8843 3.71141 35.207 3.71141 35.5591C3.71141 35.9047 3.7701 36.2242 3.88746 36.5176C4.01135 36.811 4.18413 37.0686 4.40582 37.2903C4.62751 37.5054 4.88833 37.6717 5.18826 37.7891C5.48819 37.9064 5.82073 37.9651 6.18586 37.9651C6.52492 37.9651 6.85093 37.913 7.16391 37.8086C7.4834 37.6978 7.7866 37.5152 8.07349 37.2609L8.79724 38.2096C8.43862 38.4965 8.02133 38.7149 7.54534 38.8649C7.07588 39.0084 6.5999 39.0801 6.1174 39.0801ZM7.59425 38.0434V35.4809H8.79724V38.2096L7.59425 38.0434Z" fill="#011B39"/>
<path d="M11.061 34.9821H14.4646V36.0286H11.061V34.9821ZM11.1588 37.9162H15.0221V38.9823H9.88738V32.136H14.8852V33.202H11.1588V37.9162Z" fill="#011B39"/>
<path d="M17.975 39.0801C17.4404 39.0801 16.9285 39.0051 16.4395 38.8551C15.9505 38.6986 15.5625 38.4998 15.2756 38.2585L15.7158 37.2707C15.9896 37.4859 16.3287 37.6652 16.7329 37.8086C17.1372 37.9521 17.5512 38.0238 17.975 38.0238C18.3337 38.0238 18.6238 37.9847 18.8455 37.9064C19.0672 37.8282 19.2302 37.7239 19.3345 37.5935C19.4388 37.4565 19.491 37.3033 19.491 37.1338C19.491 36.9251 19.416 36.7589 19.2661 36.635C19.1161 36.5046 18.9205 36.4035 18.6792 36.3318C18.4445 36.2535 18.1804 36.1818 17.887 36.1166C17.6001 36.0514 17.31 35.9764 17.0166 35.8917C16.7297 35.8004 16.4656 35.6863 16.2243 35.5493C15.9896 35.4059 15.7973 35.2168 15.6473 34.9821C15.4973 34.7474 15.4223 34.4474 15.4223 34.0823C15.4223 33.7106 15.5201 33.3716 15.7158 33.0651C15.9179 32.7521 16.2211 32.5044 16.6253 32.3218C17.0361 32.1327 17.5545 32.0382 18.1804 32.0382C18.5912 32.0382 18.9987 32.0903 19.403 32.1947C19.8072 32.299 20.1593 32.4489 20.4593 32.6446L20.0583 33.6324C19.7518 33.4498 19.4356 33.3161 19.1096 33.2314C18.7836 33.1401 18.4706 33.0945 18.1706 33.0945C17.8185 33.0945 17.5317 33.1368 17.31 33.2216C17.0948 33.3064 16.935 33.4172 16.8307 33.5541C16.7329 33.6911 16.684 33.8476 16.684 34.0236C16.684 34.2322 16.7557 34.4018 16.8992 34.5322C17.0492 34.6561 17.2415 34.7539 17.4762 34.8256C17.7175 34.8973 17.9848 34.969 18.2782 35.0408C18.5716 35.106 18.8618 35.181 19.1487 35.2657C19.4421 35.3505 19.7062 35.4613 19.9409 35.5982C20.1822 35.7352 20.3745 35.921 20.5179 36.1557C20.6679 36.3905 20.7429 36.6871 20.7429 37.0458C20.7429 37.4109 20.6418 37.7499 20.4397 38.0629C20.2441 38.3694 19.9409 38.6171 19.5301 38.8062C19.1193 38.9888 18.601 39.0801 17.975 39.0801Z" fill="#011B39"/>
<path d="M22.7101 38.9823V33.2118H20.4411V32.136H26.2507V33.2118H23.9816V38.9823H22.7101Z" fill="#011B39"/>
<path d="M25.3059 38.9823L28.3868 32.136H29.6387L32.7293 38.9823H31.3991L28.7486 32.8108H29.2572L26.6165 38.9823H25.3059ZM26.7241 37.3978L27.0664 36.4002H30.7634L31.1057 37.3978H26.7241ZM29.7169 31.5785C29.5604 31.5785 29.417 31.5491 29.2866 31.4905C29.1627 31.4253 29.0486 31.3503 28.9443 31.2655C28.8464 31.1742 28.7519 31.096 28.6606 31.0308C28.5693 30.9656 28.4781 30.933 28.3868 30.933C28.2498 30.933 28.139 30.9851 28.0542 31.0895C27.9695 31.1938 27.9206 31.3372 27.9075 31.5198H27.2522C27.2653 31.1155 27.3631 30.7961 27.5457 30.5613C27.7347 30.3266 27.989 30.2092 28.3085 30.2092C28.465 30.2092 28.6085 30.2418 28.7389 30.307C28.8693 30.3722 28.9834 30.4472 29.0812 30.532C29.1855 30.6167 29.2833 30.6917 29.3746 30.7569C29.4659 30.8221 29.5539 30.8547 29.6387 30.8547C29.7756 30.8547 29.8864 30.8058 29.9712 30.708C30.0625 30.6102 30.1114 30.4733 30.1179 30.2973H30.7732C30.7667 30.6754 30.6689 30.9851 30.4798 31.2264C30.2907 31.4611 30.0364 31.5785 29.7169 31.5785Z" fill="#011B39"/>
<path d="M36.1256 39.0801C35.591 39.0801 35.0987 38.9921 34.6488 38.816C34.1989 38.64 33.8077 38.3955 33.4751 38.0825C33.1426 37.763 32.885 37.3913 32.7025 36.9675C32.5199 36.5372 32.4286 36.0677 32.4286 35.5591C32.4286 35.0505 32.5199 34.5843 32.7025 34.1605C32.885 33.7302 33.1426 33.3585 33.4751 33.0456C33.8077 32.7261 34.1989 32.4783 34.6488 32.3022C35.0987 32.1262 35.5877 32.0382 36.1158 32.0382C36.6505 32.0382 37.1395 32.1262 37.5829 32.3022C38.0328 32.4783 38.424 32.7261 38.7566 33.0456C39.0891 33.3585 39.3466 33.7302 39.5292 34.1605C39.7118 34.5843 39.8031 35.0505 39.8031 35.5591C39.8031 36.0677 39.7118 36.5372 39.5292 36.9675C39.3466 37.3978 39.0891 37.7695 38.7566 38.0825C38.424 38.3955 38.0328 38.64 37.5829 38.816C37.1395 38.9921 36.6538 39.0801 36.1256 39.0801ZM36.1158 37.9651C36.4614 37.9651 36.7809 37.9064 37.0743 37.7891C37.3677 37.6717 37.622 37.5054 37.8372 37.2903C38.0524 37.0686 38.2186 36.8143 38.336 36.5274C38.4599 36.234 38.5218 35.9112 38.5218 35.5591C38.5218 35.207 38.4599 34.8875 38.336 34.6006C38.2186 34.3072 38.0524 34.0529 37.8372 33.8378C37.622 33.6161 37.3677 33.4466 37.0743 33.3292C36.7809 33.2118 36.4614 33.1531 36.1158 33.1531C35.7703 33.1531 35.4508 33.2118 35.1574 33.3292C34.8705 33.4466 34.6162 33.6161 34.3945 33.8378C34.1793 34.0529 34.0098 34.3072 33.8859 34.6006C33.7685 34.8875 33.7098 35.207 33.7098 35.5591C33.7098 35.9047 33.7685 36.2242 33.8859 36.5176C34.0098 36.811 34.1793 37.0686 34.3945 37.2903C34.6096 37.5054 34.8639 37.6717 35.1574 37.7891C35.4508 37.9064 35.7703 37.9651 36.1158 37.9651Z" fill="#011B39"/>
<path d="M42.6801 38.9823V32.136H45.6729C46.4162 32.136 47.0683 32.2794 47.629 32.5663C48.1898 32.8532 48.6266 33.2509 48.9396 33.7595C49.2526 34.2681 49.4091 34.868 49.4091 35.5591C49.4091 36.2438 49.2526 36.8436 48.9396 37.3587C48.6266 37.8673 48.1898 38.265 47.629 38.5519C47.0683 38.8388 46.4162 38.9823 45.6729 38.9823H42.6801ZM43.9516 37.9064H45.6142C46.1293 37.9064 46.5727 37.8086 46.9444 37.613C47.3226 37.4174 47.6127 37.1436 47.8148 36.7915C48.0235 36.4394 48.1278 36.0286 48.1278 35.5591C48.1278 35.0831 48.0235 34.6724 47.8148 34.3268C47.6127 33.9747 47.3226 33.7008 46.9444 33.5052C46.5727 33.3096 46.1293 33.2118 45.6142 33.2118H43.9516V37.9064Z" fill="#011B39"/>
<path d="M53.3816 39.0801C52.8469 39.0801 52.3547 38.9921 51.9048 38.816C51.4548 38.64 51.0636 38.3955 50.7311 38.0825C50.3986 37.763 50.141 37.3913 49.9584 36.9675C49.7759 36.5372 49.6846 36.0677 49.6846 35.5591C49.6846 35.0505 49.7759 34.5843 49.9584 34.1605C50.141 33.7302 50.3986 33.3585 50.7311 33.0456C51.0636 32.7261 51.4548 32.4783 51.9048 32.3022C52.3547 32.1262 52.8437 32.0382 53.3718 32.0382C53.9065 32.0382 54.3955 32.1262 54.8389 32.3022C55.2888 32.4783 55.68 32.7261 56.0125 33.0456C56.3451 33.3585 56.6026 33.7302 56.7852 34.1605C56.9678 34.5843 57.059 35.0505 57.059 35.5591C57.059 36.0677 56.9678 36.5372 56.7852 36.9675C56.6026 37.3978 56.3451 37.7695 56.0125 38.0825C55.68 38.3955 55.2888 38.64 54.8389 38.816C54.3955 38.9921 53.9097 39.0801 53.3816 39.0801ZM53.3718 37.9651C53.7174 37.9651 54.0369 37.9064 54.3303 37.7891C54.6237 37.6717 54.878 37.5054 55.0932 37.2903C55.3083 37.0686 55.4746 36.8143 55.592 36.5274C55.7159 36.234 55.7778 35.9112 55.7778 35.5591C55.7778 35.207 55.7159 34.8875 55.592 34.6006C55.4746 34.3072 55.3083 34.0529 55.0932 33.8378C54.878 33.6161 54.6237 33.4466 54.3303 33.3292C54.0369 33.2118 53.7174 33.1531 53.3718 33.1531C53.0262 33.1531 52.7067 33.2118 52.4133 33.3292C52.1264 33.4466 51.8721 33.6161 51.6505 33.8378C51.4353 34.0529 51.2658 34.3072 51.1419 34.6006C51.0245 34.8875 50.9658 35.207 50.9658 35.5591C50.9658 35.9047 51.0245 36.2242 51.1419 36.5176C51.2658 36.811 51.4353 37.0686 51.6505 37.2903C51.8656 37.5054 52.1199 37.6717 52.4133 37.7891C52.7067 37.9064 53.0262 37.9651 53.3718 37.9651Z" fill="#011B39"/>
<path d="M59.9361 38.9823V32.136H61.2075V38.9823H59.9361Z" fill="#011B39"/>
<path d="M62.4725 38.9823V32.136H63.519L67.8126 37.4076H67.2943V32.136H68.5559V38.9823H67.5094L63.2158 33.7106H63.7342V38.9823H62.4725Z" fill="#011B39"/>
<path d="M71.7804 38.9823L68.7876 32.136H70.1667L72.8367 38.327H72.0445L74.7439 32.136H76.0154L73.0323 38.9823H71.7804Z" fill="#011B39"/>
<path d="M77.3246 34.9821H80.7282V36.0286H77.3246V34.9821ZM77.4224 37.9162H81.2857V38.9823H76.151V32.136H81.1488V33.202H77.4224V37.9162Z" fill="#011B39"/>
<path d="M84.2386 39.0801C83.704 39.0801 83.1921 39.0051 82.7031 38.8551C82.2141 38.6986 81.8261 38.4998 81.5392 38.2585L81.9794 37.2707C82.2532 37.4859 82.5923 37.6652 82.9965 37.8086C83.4008 37.9521 83.8148 38.0238 84.2386 38.0238C84.5973 38.0238 84.8874 37.9847 85.1091 37.9064C85.3308 37.8282 85.4938 37.7239 85.5981 37.5935C85.7025 37.4565 85.7546 37.3033 85.7546 37.1338C85.7546 36.9251 85.6796 36.7589 85.5297 36.635C85.3797 36.5046 85.1841 36.4035 84.9428 36.3318C84.7081 36.2535 84.444 36.1818 84.1506 36.1166C83.8637 36.0514 83.5736 35.9764 83.2802 35.8917C82.9933 35.8004 82.7292 35.6863 82.4879 35.5493C82.2532 35.4059 82.0609 35.2168 81.9109 34.9821C81.7609 34.7474 81.6859 34.4474 81.6859 34.0823C81.6859 33.7106 81.7838 33.3716 81.9794 33.0651C82.1815 32.7521 82.4847 32.5044 82.8889 32.3218C83.2997 32.1327 83.8181 32.0382 84.444 32.0382C84.8548 32.0382 85.2623 32.0903 85.6666 32.1947C86.0708 32.299 86.4229 32.4489 86.7229 32.6446L86.3219 33.6324C86.0154 33.4498 85.6992 33.3161 85.3732 33.2314C85.0472 33.1401 84.7342 33.0945 84.4342 33.0945C84.0822 33.0945 83.7953 33.1368 83.5736 33.2216C83.3584 33.3064 83.1987 33.4172 83.0943 33.5541C82.9965 33.6911 82.9476 33.8476 82.9476 34.0236C82.9476 34.2322 83.0193 34.4018 83.1628 34.5322C83.3128 34.6561 83.5051 34.7539 83.7398 34.8256C83.9811 34.8973 84.2484 34.969 84.5418 35.0408C84.8353 35.106 85.1254 35.181 85.4123 35.2657C85.7057 35.3505 85.9698 35.4613 86.2045 35.5982C86.4458 35.7352 86.6381 35.921 86.7816 36.1557C86.9315 36.3905 87.0065 36.6871 87.0065 37.0458C87.0065 37.4109 86.9054 37.7499 86.7033 38.0629C86.5077 38.3694 86.2045 38.6171 85.7937 38.8062C85.383 38.9888 84.8646 39.0801 84.2386 39.0801Z" fill="#011B39"/>
<path d="M88.9738 38.9823V33.2118H86.7047V32.136H92.5143V33.2118H90.2452V38.9823H88.9738Z" fill="#011B39"/>
<path d="M92.8816 38.9823V32.136H94.1531V38.9823H92.8816Z" fill="#011B39"/>
<path d="M95.4181 38.9823V32.136H96.4646L99.4574 37.1338H98.9097L101.854 32.136H102.9L102.91 38.9823H101.707L101.697 34.0236H101.951L99.4476 38.1998H98.8803L96.3374 34.0236H96.6308V38.9823H95.4181Z" fill="#011B39"/>
<path d="M105.346 34.9821H108.75V36.0286H105.346V34.9821ZM105.444 37.9162H109.307V38.9823H104.172V32.136H109.17V33.202H105.444V37.9162Z" fill="#011B39"/>
<path d="M110.138 38.9823V32.136H111.184L115.478 37.4076H114.959V32.136H116.221V38.9823H115.175L110.881 33.7106H111.399V38.9823H110.138Z" fill="#011B39"/>
<path d="M118.858 38.9823V33.2118H116.589V32.136H122.398V33.2118H120.129V38.9823H118.858Z" fill="#011B39"/>
<path d="M125.878 39.0801C125.343 39.0801 124.851 38.9921 124.401 38.816C123.951 38.64 123.56 38.3955 123.227 38.0825C122.895 37.763 122.637 37.3913 122.455 36.9675C122.272 36.5372 122.181 36.0677 122.181 35.5591C122.181 35.0505 122.272 34.5843 122.455 34.1605C122.637 33.7302 122.895 33.3585 123.227 33.0456C123.56 32.7261 123.951 32.4783 124.401 32.3022C124.851 32.1262 125.34 32.0382 125.868 32.0382C126.403 32.0382 126.892 32.1262 127.335 32.3022C127.785 32.4783 128.176 32.7261 128.509 33.0456C128.841 33.3585 129.099 33.7302 129.282 34.1605C129.464 34.5843 129.555 35.0505 129.555 35.5591C129.555 36.0677 129.464 36.5372 129.282 36.9675C129.099 37.3978 128.841 37.7695 128.509 38.0825C128.176 38.3955 127.785 38.64 127.335 38.816C126.892 38.9921 126.406 39.0801 125.878 39.0801ZM125.868 37.9651C126.214 37.9651 126.533 37.9064 126.827 37.7891C127.12 37.6717 127.374 37.5054 127.59 37.2903C127.805 37.0686 127.971 36.8143 128.088 36.5274C128.212 36.234 128.274 35.9112 128.274 35.5591C128.274 35.207 128.212 34.8875 128.088 34.6006C127.971 34.3072 127.805 34.0529 127.59 33.8378C127.374 33.6161 127.12 33.4466 126.827 33.3292C126.533 33.2118 126.214 33.1531 125.868 33.1531C125.523 33.1531 125.203 33.2118 124.91 33.3292C124.623 33.4466 124.368 33.6161 124.147 33.8378C123.932 34.0529 123.762 34.3072 123.638 34.6006C123.521 34.8875 123.462 35.207 123.462 35.5591C123.462 35.9047 123.521 36.2242 123.638 36.5176C123.762 36.811 123.932 37.0686 124.147 37.2903C124.362 37.5054 124.616 37.6717 124.91 37.7891C125.203 37.9064 125.523 37.9651 125.868 37.9651Z" fill="#011B39"/>
<path d="M2.9192 50.9022V44.0559H5.73596C6.34235 44.0559 6.86071 44.1537 7.29105 44.3493C7.72791 44.5449 8.06371 44.8253 8.29844 45.1904C8.53317 45.5555 8.65053 45.9891 8.65053 46.4912C8.65053 46.9933 8.53317 47.4269 8.29844 47.792C8.06371 48.1571 7.72791 48.4375 7.29105 48.6331C6.86071 48.8287 6.34235 48.9265 5.73596 48.9265H3.62339L4.19065 48.3299V50.9022H2.9192ZM4.19065 48.4669L3.62339 47.8507H5.67728C6.23803 47.8507 6.65858 47.7333 6.93896 47.4986C7.22585 47.2573 7.3693 46.9215 7.3693 46.4912C7.3693 46.0544 7.22585 45.7186 6.93896 45.4838C6.65858 45.2491 6.23803 45.1317 5.67728 45.1317H3.62339L4.19065 44.5058V48.4669Z" fill="#011B39"/>
<path d="M12.2678 51C11.3288 51 10.5921 50.7359 10.0574 50.2078C9.52925 49.6796 9.26517 48.9168 9.26517 47.9192V44.0559H10.5366V47.8703C10.5366 48.5744 10.6866 49.0863 10.9865 49.4058C11.293 49.7253 11.7233 49.885 12.2775 49.885C12.8318 49.885 13.2589 49.7253 13.5588 49.4058C13.8587 49.0863 14.0087 48.5744 14.0087 47.8703V44.0559H15.2606V47.9192C15.2606 48.9168 14.9932 49.6796 14.4586 50.2078C13.9304 50.7359 13.2002 51 12.2678 51ZM11.456 43.4984L12.7764 42.1585H14.2141L12.5123 43.4984H11.456Z" fill="#011B39"/>
<path d="M16.4544 50.9022V44.0559H19.6624C20.4839 44.0559 21.1099 44.2189 21.5402 44.5449C21.9706 44.8644 22.1857 45.2947 22.1857 45.8359C22.1857 46.2011 22.101 46.514 21.9315 46.7748C21.7619 47.0291 21.5337 47.228 21.2468 47.3714C20.9664 47.5084 20.66 47.5768 20.3275 47.5768L20.5035 47.2247C20.8882 47.2247 21.2338 47.2965 21.5402 47.4399C21.8467 47.5768 22.0879 47.779 22.264 48.0463C22.4466 48.3136 22.5378 48.6462 22.5378 49.0439C22.5378 49.6307 22.3129 50.0872 21.863 50.4132C21.4131 50.7392 20.7448 50.9022 19.858 50.9022H16.4544ZM17.7259 49.9046H19.7798C20.2557 49.9046 20.6209 49.8263 20.8752 49.6699C21.1295 49.5134 21.2566 49.2623 21.2566 48.9168C21.2566 48.5777 21.1295 48.3299 20.8752 48.1734C20.6209 48.0104 20.2557 47.9289 19.7798 47.9289H17.6281V46.9411H19.5255C19.9688 46.9411 20.3079 46.8629 20.5426 46.7064C20.7839 46.5499 20.9045 46.3152 20.9045 46.0022C20.9045 45.6827 20.7839 45.4447 20.5426 45.2882C20.3079 45.1317 19.9688 45.0535 19.5255 45.0535H17.7259V49.9046Z" fill="#011B39"/>
<path d="M23.308 50.9022V44.0559H24.5794V49.8263H28.1591V50.9022H23.308Z" fill="#011B39"/>
<path d="M28.576 50.9022V44.0559H29.8475V50.9022H28.576Z" fill="#011B39"/>
<path d="M34.2813 51C33.7597 51 33.2739 50.9152 32.824 50.7457C32.3807 50.5697 31.9927 50.3251 31.6602 50.0122C31.3341 49.6927 31.0799 49.3178 30.8973 48.8874C30.7147 48.4571 30.6234 47.9876 30.6234 47.479C30.6234 46.9705 30.7147 46.501 30.8973 46.0707C31.0799 45.6403 31.3374 45.2687 31.6699 44.9557C32.0025 44.6362 32.3904 44.3917 32.8338 44.2221C33.2772 44.0461 33.763 43.9581 34.2911 43.9581C34.8518 43.9581 35.3637 44.0559 35.8266 44.2515C36.2896 44.4406 36.6808 44.7242 37.0003 45.1024L36.1787 45.875C35.931 45.6077 35.6538 45.4088 35.3474 45.2784C35.0409 45.1415 34.7084 45.073 34.3498 45.073C33.9912 45.073 33.6619 45.1317 33.362 45.2491C33.0685 45.3665 32.811 45.5327 32.5893 45.7479C32.3741 45.9631 32.2046 46.2174 32.0807 46.5108C31.9634 46.8042 31.9047 47.1269 31.9047 47.479C31.9047 47.8311 31.9634 48.1539 32.0807 48.4473C32.2046 48.7407 32.3741 48.995 32.5893 49.2102C32.811 49.4253 33.0685 49.5916 33.362 49.709C33.6619 49.8263 33.9912 49.885 34.3498 49.885C34.7084 49.885 35.0409 49.8198 35.3474 49.6894C35.6538 49.5525 35.931 49.3471 36.1787 49.0732L37.0003 49.8557C36.6808 50.2273 36.2896 50.511 35.8266 50.7066C35.3637 50.9022 34.8486 51 34.2813 51Z" fill="#011B39"/>
<path d="M40.6964 51C40.1618 51 39.6695 50.912 39.2196 50.7359C38.7697 50.5599 38.3785 50.3154 38.0459 50.0024C37.7134 49.6829 37.4559 49.3112 37.2733 48.8874C37.0907 48.4571 36.9994 47.9876 36.9994 47.479C36.9994 46.9705 37.0907 46.5043 37.2733 46.0804C37.4559 45.6501 37.7134 45.2784 38.0459 44.9655C38.3785 44.646 38.7697 44.3982 39.2196 44.2221C39.6695 44.0461 40.1585 43.9581 40.6867 43.9581C41.2213 43.9581 41.7104 44.0461 42.1537 44.2221C42.6036 44.3982 42.9948 44.646 43.3274 44.9655C43.6599 45.2784 43.9175 45.6501 44.1 46.0804C44.2826 46.5043 44.3739 46.9705 44.3739 47.479C44.3739 47.9876 44.2826 48.4571 44.1 48.8874C43.9175 49.3178 43.6599 49.6894 43.3274 50.0024C42.9948 50.3154 42.6036 50.5599 42.1537 50.7359C41.7104 50.912 41.2246 51 40.6964 51ZM40.6867 49.885C41.0322 49.885 41.3517 49.8263 41.6451 49.709C41.9386 49.5916 42.1929 49.4253 42.408 49.2102C42.6232 48.9885 42.7895 48.7342 42.9068 48.4473C43.0307 48.1539 43.0927 47.8311 43.0927 47.479C43.0927 47.1269 43.0307 46.8074 42.9068 46.5206C42.7895 46.2271 42.6232 45.9728 42.408 45.7577C42.1929 45.536 41.9386 45.3665 41.6451 45.2491C41.3517 45.1317 41.0322 45.073 40.6867 45.073C40.3411 45.073 40.0216 45.1317 39.7282 45.2491C39.4413 45.3665 39.187 45.536 38.9653 45.7577C38.7501 45.9728 38.5806 46.2271 38.4567 46.5206C38.3394 46.8074 38.2807 47.1269 38.2807 47.479C38.2807 47.8246 38.3394 48.1441 38.4567 48.4375C38.5806 48.7309 38.7501 48.9885 38.9653 49.2102C39.1805 49.4253 39.4348 49.5916 39.7282 49.709C40.0216 49.8263 40.3411 49.885 40.6867 49.885Z" fill="#011B39"/>
<path d="M47.2509 50.9022V44.0559H50.2438C50.9871 44.0559 51.6391 44.1993 52.1998 44.4862C52.7606 44.7731 53.1974 45.1709 53.5104 45.6794C53.8234 46.188 53.9799 46.7879 53.9799 47.479C53.9799 48.1637 53.8234 48.7635 53.5104 49.2786C53.1974 49.7872 52.7606 50.185 52.1998 50.4718C51.6391 50.7587 50.9871 50.9022 50.2438 50.9022H47.2509ZM48.5224 49.8263H50.1851C50.7002 49.8263 51.1436 49.7285 51.5152 49.5329C51.8934 49.3373 52.1835 49.0635 52.3857 48.7114C52.5943 48.3593 52.6986 47.9485 52.6986 47.479C52.6986 47.0031 52.5943 46.5923 52.3857 46.2467C52.1835 45.8946 51.8934 45.6208 51.5152 45.4251C51.1436 45.2295 50.7002 45.1317 50.1851 45.1317H48.5224V49.8263Z" fill="#011B39"/>
<path d="M57.9524 51C57.4178 51 56.9255 50.912 56.4756 50.7359C56.0257 50.5599 55.6345 50.3154 55.3019 50.0024C54.9694 49.6829 54.7118 49.3112 54.5293 48.8874C54.3467 48.4571 54.2554 47.9876 54.2554 47.479C54.2554 46.9705 54.3467 46.5043 54.5293 46.0804C54.7118 45.6501 54.9694 45.2784 55.3019 44.9655C55.6345 44.646 56.0257 44.3982 56.4756 44.2221C56.9255 44.0461 57.4145 43.9581 57.9426 43.9581C58.4773 43.9581 58.9663 44.0461 59.4097 44.2221C59.8596 44.3982 60.2508 44.646 60.5834 44.9655C60.9159 45.2784 61.1734 45.6501 61.356 46.0804C61.5386 46.5043 61.6299 46.9705 61.6299 47.479C61.6299 47.9876 61.5386 48.4571 61.356 48.8874C61.1734 49.3178 60.9159 49.6894 60.5834 50.0024C60.2508 50.3154 59.8596 50.5599 59.4097 50.7359C58.9663 50.912 58.4806 51 57.9524 51ZM57.9426 49.885C58.2882 49.885 58.6077 49.8263 58.9011 49.709C59.1945 49.5916 59.4488 49.4253 59.664 49.2102C59.8792 48.9885 60.0454 48.7342 60.1628 48.4473C60.2867 48.1539 60.3486 47.8311 60.3486 47.479C60.3486 47.1269 60.2867 46.8074 60.1628 46.5206C60.0454 46.2271 59.8792 45.9728 59.664 45.7577C59.4488 45.536 59.1945 45.3665 58.9011 45.2491C58.6077 45.1317 58.2882 45.073 57.9426 45.073C57.5971 45.073 57.2776 45.1317 56.9842 45.2491C56.6973 45.3665 56.443 45.536 56.2213 45.7577C56.0061 45.9728 55.8366 46.2271 55.7127 46.5206C55.5953 46.8074 55.5367 47.1269 55.5367 47.479C55.5367 47.8246 55.5953 48.1441 55.7127 48.4375C55.8366 48.7309 56.0061 48.9885 56.2213 49.2102C56.4365 49.4253 56.6907 49.5916 56.9842 49.709C57.2776 49.8263 57.5971 49.885 57.9426 49.885Z" fill="#011B39"/>
<path d="M65.6806 46.902H69.0842V47.9485H65.6806V46.902ZM65.7784 49.8361H69.6416V50.9022H64.5069V44.0559H69.5047V45.1219H65.7784V49.8361Z" fill="#011B39"/>
<path d="M72.5946 51C72.0599 51 71.5481 50.925 71.0591 50.775C70.57 50.6186 70.1821 50.4197 69.8952 50.1784L70.3353 49.1906C70.6091 49.4058 70.9482 49.5851 71.3525 49.7285C71.7567 49.872 72.1708 49.9437 72.5946 49.9437C72.9532 49.9437 73.2433 49.9046 73.465 49.8263C73.6867 49.7481 73.8497 49.6438 73.9541 49.5134C74.0584 49.3764 74.1105 49.2232 74.1105 49.0537C74.1105 48.845 74.0356 48.6788 73.8856 48.5549C73.7356 48.4245 73.54 48.3234 73.2988 48.2517C73.064 48.1734 72.8 48.1017 72.5066 48.0365C72.2197 47.9713 71.9295 47.8963 71.6361 47.8116C71.3492 47.7203 71.0851 47.6062 70.8439 47.4693C70.6091 47.3258 70.4168 47.1367 70.2668 46.902C70.1169 46.6673 70.0419 46.3673 70.0419 46.0022C70.0419 45.6305 70.1397 45.2915 70.3353 44.985C70.5374 44.672 70.8406 44.4243 71.2449 44.2417C71.6557 44.0526 72.174 43.9581 72.8 43.9581C73.2107 43.9581 73.6183 44.0102 74.0225 44.1146C74.4268 44.2189 74.7789 44.3689 75.0788 44.5645L74.6778 45.5523C74.3714 45.3697 74.0551 45.2361 73.7291 45.1513C73.4031 45.06 73.0901 45.0144 72.7902 45.0144C72.4381 45.0144 72.1512 45.0567 71.9295 45.1415C71.7143 45.2263 71.5546 45.3371 71.4503 45.474C71.3525 45.611 71.3036 45.7675 71.3036 45.9435C71.3036 46.1522 71.3753 46.3217 71.5187 46.4521C71.6687 46.576 71.861 46.6738 72.0958 46.7455C72.337 46.8172 72.6044 46.8889 72.8978 46.9607C73.1912 47.0259 73.4813 47.1009 73.7682 47.1856C74.0616 47.2704 74.3257 47.3812 74.5604 47.5182C74.8017 47.6551 74.994 47.8409 75.1375 48.0756C75.2875 48.3104 75.3624 48.607 75.3624 48.9657C75.3624 49.3308 75.2614 49.6699 75.0592 49.9828C74.8636 50.2893 74.5604 50.5371 74.1497 50.7261C73.7389 50.9087 73.2205 51 72.5946 51Z" fill="#011B39"/>
<path d="M77.3297 50.9022V45.1317H75.0606V44.0559H80.8702V45.1317H78.6011V50.9022H77.3297Z" fill="#011B39"/>
<path d="M79.9255 50.9022L83.0063 44.0559H84.2582L87.3488 50.9022H86.0187L83.3682 44.7307H83.8768L81.236 50.9022H79.9255ZM81.3436 49.3178L81.6859 48.3202H85.383L85.7253 49.3178H81.3436Z" fill="#011B39"/>
<path d="M87.6327 50.9022V44.0559H90.6255C91.3688 44.0559 92.0208 44.1993 92.5816 44.4862C93.1423 44.7731 93.5792 45.1709 93.8922 45.6794C94.2051 46.188 94.3616 46.7879 94.3616 47.479C94.3616 48.1637 94.2051 48.7635 93.8922 49.2786C93.5792 49.7872 93.1423 50.185 92.5816 50.4718C92.0208 50.7587 91.3688 50.9022 90.6255 50.9022H87.6327ZM88.9041 49.8263H90.5668C91.0819 49.8263 91.5253 49.7285 91.897 49.5329C92.2751 49.3373 92.5653 49.0635 92.7674 48.7114C92.9761 48.3593 93.0804 47.9485 93.0804 47.479C93.0804 47.0031 92.9761 46.5923 92.7674 46.2467C92.5653 45.8946 92.2751 45.6208 91.897 45.4251C91.5253 45.2295 91.0819 45.1317 90.5668 45.1317H88.9041V49.8263Z" fill="#011B39"/>
<path d="M98.3342 51C97.7995 51 97.3072 50.912 96.8573 50.7359C96.4074 50.5599 96.0162 50.3154 95.6837 50.0024C95.3511 49.6829 95.0936 49.3112 94.911 48.8874C94.7284 48.4571 94.6372 47.9876 94.6372 47.479C94.6372 46.9705 94.7284 46.5043 94.911 46.0804C95.0936 45.6501 95.3511 45.2784 95.6837 44.9655C96.0162 44.646 96.4074 44.3982 96.8573 44.2221C97.3072 44.0461 97.7962 43.9581 98.3244 43.9581C98.859 43.9581 99.3481 44.0461 99.7915 44.2221C100.241 44.3982 100.633 44.646 100.965 44.9655C101.298 45.2784 101.555 45.6501 101.738 46.0804C101.92 46.5043 102.012 46.9705 102.012 47.479C102.012 47.9876 101.92 48.4571 101.738 48.8874C101.555 49.3178 101.298 49.6894 100.965 50.0024C100.633 50.3154 100.241 50.5599 99.7915 50.7359C99.3481 50.912 98.8623 51 98.3342 51ZM98.3244 49.885C98.67 49.885 98.9895 49.8263 99.2829 49.709C99.5763 49.5916 99.8306 49.4253 100.046 49.2102C100.261 48.9885 100.427 48.7342 100.545 48.4473C100.668 48.1539 100.73 47.8311 100.73 47.479C100.73 47.1269 100.668 46.8074 100.545 46.5206C100.427 46.2271 100.261 45.9728 100.046 45.7577C99.8306 45.536 99.5763 45.3665 99.2829 45.2491C98.9895 45.1317 98.67 45.073 98.3244 45.073C97.9788 45.073 97.6593 45.1317 97.3659 45.2491C97.079 45.3665 96.8247 45.536 96.603 45.7577C96.3879 45.9728 96.2183 46.2271 96.0944 46.5206C95.9771 46.8074 95.9184 47.1269 95.9184 47.479C95.9184 47.8246 95.9771 48.1441 96.0944 48.4375C96.2183 48.7309 96.3879 48.9885 96.603 49.2102C96.8182 49.4253 97.0725 49.5916 97.3659 49.709C97.6593 49.8263 97.9788 49.885 98.3244 49.885Z" fill="#011B39"/>
</svg>
